<?xml version="1.0" encoding="UTF-8"?>
<svg id="Layer_2" data-name="Layer 2" xmlns="http://www.w3.org/2000/svg" xmlns:xlink="http://www.w3.org/1999/xlink" viewBox="0 0 577.95 129.03">
  <defs>
    <style>
      .cls-1 {
        fill: url(#linear-gradient-2);
      }

      .cls-2 {
        fill: #fff;
      }

      .cls-3 {
        fill: url(#linear-gradient-3);
      }

      .cls-4 {
        fill: url(#linear-gradient);
      }

      .cls-5 {
        fill: url(#linear-gradient-4);
      }
    </style>
    <linearGradient id="linear-gradient" x1="480.89" y1="-1113.76" x2="480.89" y2="2246.27" gradientUnits="userSpaceOnUse">
      <stop offset="0" stop-color="#ffbb38"/>
      <stop offset="1" stop-color="#f90"/>
    </linearGradient>
    <linearGradient id="linear-gradient-2" x1="466.66" y1="-1113.76" x2="466.66" y2="2246.27" xlink:href="#linear-gradient"/>
    <linearGradient id="linear-gradient-3" x1="549.67" y1="-1113.76" x2="549.67" y2="2246.27" xlink:href="#linear-gradient"/>
    <linearGradient id="linear-gradient-4" x1="92.58" y1="-1113.76" x2="92.58" y2="2246.27" xlink:href="#linear-gradient"/>
  </defs>
  <g id="Layer_1-2" data-name="Layer 1">
    <g>
      <g>
        <path class="cls-4" d="M512.63,34.15v38.43c0,12.19-2.33,20.79-6.98,25.83-4.64,5.02-12.63,7.54-23.97,7.54-11.94,0-20.35-2.5-25.22-7.48-4.88-5-7.31-13.62-7.31-25.89v-28.41c5.71-3.09,11.52-5.17,17.45-6.34v34.75c0,7.31,1.02,12.32,3.06,15.03,2.05,2.7,5.79,4.05,11.23,4.05s8.98-1.35,11.06-4.05c2.07-2.71,3.11-7.72,3.11-15.03V40.52c5.74-3.11,11.61-5.2,17.57-6.37Z"/>
        <path class="cls-2" d="M163.85,23.43c12.62,0,21.41,2.93,26.36,8.8,4.95,5.87,7.42,16.61,7.42,32.23s-2.48,26.36-7.42,32.23c-4.95,5.87-13.74,8.8-26.36,8.8-9.67,0-19.95-.34-30.83-1.03V24.46c10.88-.69,21.16-1.03,30.83-1.03Zm-13.38,13.83v54.17c1.28,0,3.42,.02,6.4,.06,2.98,.04,5.31,.06,6.97,.06,5.97,0,10.03-1.89,12.19-5.66,2.15-3.77,3.23-10.91,3.23-21.43s-1.08-17.71-3.23-21.6c-2.15-3.89-6.22-5.79-12.19-5.71l-13.38,.11Z"/>
        <path class="cls-2" d="M231.04,45.6c9.45,0,16.28,1.64,20.52,4.92,4.23,3.28,6.39,8.3,6.46,15.09,0,5.33-1.38,9.33-4.14,12-2.76,2.67-7.12,4-13.09,4h-20.52c.53,4.11,1.78,6.9,3.74,8.34,1.96,1.45,5.21,2.17,9.75,2.17,5.97,0,13-.42,21.08-1.26l1.7,10.74c-5.89,2.82-14.17,4.23-24.83,4.23s-18.23-2.32-22.73-6.97c-4.5-4.65-6.74-12.3-6.74-22.97,0-11.2,2.19-19.05,6.57-23.54,4.38-4.49,11.79-6.74,22.22-6.74Zm.57,12.57c-4.38,0-7.37,.86-8.96,2.57-1.59,1.71-2.49,5.24-2.72,10.57h16.1c2.11,0,3.53-.51,4.25-1.54,.72-1.03,1.08-2.49,1.08-4.4,0-2.67-.7-4.53-2.1-5.6-1.4-1.07-3.95-1.6-7.65-1.6Z"/>
        <path class="cls-2" d="M321.56,47.32l-18.59,53.03c-.83,2.74-2.68,4.11-5.55,4.11h-14.74c-2.8,0-4.61-1.37-5.44-4.11l-18.7-53.03h18.02l10.32,35.77c.91,3.43,1.7,6.86,2.38,10.29h1.47l2.72-10.29,10.2-35.77h17.91Z"/>
        <path class="cls-2" d="M350.35,45.6c9.45,0,16.28,1.64,20.52,4.92,4.23,3.28,6.39,8.3,6.46,15.09,0,5.33-1.38,9.33-4.14,12-2.76,2.67-7.12,4-13.09,4h-20.52c.53,4.11,1.78,6.9,3.74,8.34,1.96,1.45,5.21,2.17,9.75,2.17,5.97,0,13-.42,21.08-1.26l1.7,10.74c-5.89,2.82-14.17,4.23-24.83,4.23s-18.23-2.32-22.73-6.97c-4.5-4.65-6.74-12.3-6.74-22.97,0-11.2,2.19-19.05,6.57-23.54,4.38-4.49,11.79-6.74,22.22-6.74Zm.57,12.57c-4.38,0-7.37,.86-8.96,2.57-1.59,1.71-2.49,5.24-2.72,10.57h16.1c2.11,0,3.53-.51,4.25-1.54,.72-1.03,1.08-2.49,1.08-4.4,0-2.67-.7-4.53-2.1-5.6-1.4-1.07-3.95-1.6-7.65-1.6Z"/>
        <path class="cls-2" d="M420.05,28.66c.1,4.16,.25,19.78,.46,22.09-5.13-3.43-11.3-5.15-18.47-5.15s-12.87,2.22-16.38,6.63c-3.52,4.42-5.27,12.11-5.27,23.09,0,10.13,1.58,17.75,4.75,22.86,3.18,5.1,8.28,7.66,15.3,7.66,9,0,16.22-3.24,21.66-9.71l1.36,8.34h13.48V22.53c-5.73,1.14-11.37,3.14-16.9,6.13Zm-.11,58.43c-2.72,1.75-4.93,2.96-6.63,3.6-1.7,.65-3.72,.97-6.07,.97-3.47,0-5.91-1.09-7.31-3.26-1.4-2.17-2.1-6.57-2.1-13.2s.72-11.46,2.16-13.6c1.43-2.13,4.04-3.2,7.82-3.2,2.96,0,6.99,.73,12.13,2.17v26.52Z"/>
        <path class="cls-1" d="M466.73,37.8v12.92h-.13v-12.89s.09-.02,.13-.03Z"/>
        <path class="cls-3" d="M538.29,122.89c-.1-4.16-.25-19.78-.46-22.09,5.13,3.43,11.3,5.15,18.47,5.15s12.87-2.22,16.38-6.63c3.52-4.42,5.27-12.11,5.27-23.09,0-10.13-1.58-17.75-4.75-22.86-3.18-5.1-8.28-7.66-15.3-7.66-9,0-16.22,3.24-21.66,9.71l-1.36-8.34h-13.48v81.94c5.73-1.14,11.37-3.14,16.9-6.13Zm.11-58.43c2.72-1.75,4.93-2.96,6.63-3.6,1.7-.65,3.72-.97,6.07-.97,3.47,0,5.91,1.09,7.31,3.26,1.4,2.17,2.1,6.57,2.1,13.2s-.72,11.46-2.16,13.6c-1.43,2.13-4.04,3.2-7.82,3.2-2.96,0-6.99-.73-12.13-2.17v-26.52Z"/>
      </g>
      <g>
        <path class="cls-2" d="M90.31,108.33c-22.55,2.71-41.23,3.49-61.52,2.36-.16-.01-.33-.02-.49-.03-2.18-.1-4.42-.26-6.65-.44-6.06-.43-12.3-1.06-18.86-1.84-.78-6.59-1.38-12.84-1.84-18.9-.18-2.23-.31-4.41-.42-6.57-.01-.18-.02-.35-.03-.53,2.55,.11,14.24,.59,27.32,.96,14.24,.41,30.14,.69,37.74,.24,.44-7.59,.16-23.48-.25-37.71,13.09,.38,24.77,.86,27.32,.97,1.15,20.25,.36,38.94-2.34,61.49Z"/>
        <path class="cls-5" d="M111.19,37.25c-3.36-.14-18.74-.77-35.96-1.27-.49-17.26-1.12-32.67-1.26-35.98,.22,.01,.44,.02,.66,.04,2.87,.14,5.81,.34,8.74,.58,7.98,.56,16.19,1.39,24.82,2.42,1.02,8.68,1.82,16.91,2.42,24.87,.24,2.94,.41,5.81,.55,8.64,.01,.23,.03,.47,.04,.7Z"/>
        <path class="cls-2" d="M27.59,45.65c-.45,7.59-.16,23.48,.24,37.71,.37,13.12,.85,24.83,.96,27.34-.16-.01-.33-.02-.49-.03-2.18-.1-4.42-.26-6.65-.44-6.06-.43-12.3-1.06-18.86-1.84-.78-6.59-1.38-12.84-1.84-18.9-.18-2.23-.31-4.41-.42-6.57-.01-.18-.02-.35-.03-.53C-.64,62.14,.15,43.45,2.85,20.91c22.56-2.7,41.23-3.49,61.52-2.36,.1,2.52,.58,14.23,.96,27.34-14.24-.41-30.14-.69-37.73-.24Z"/>
      </g>
    </g>
  </g>
</svg>