<?xml version="1.0" encoding="UTF-8"?>
<svg id="Layer_2" data-name="Layer 2" xmlns="http://www.w3.org/2000/svg" xmlns:xlink="http://www.w3.org/1999/xlink" viewBox="0 0 291.67 291.7">
  <defs>
    <style>
      .cls-1 {
        fill: #fff;
      }

      .cls-2 {
        fill: url(#linear-gradient);
      }
    </style>
    <linearGradient id="linear-gradient" x1="242.85" y1="-1032.43" x2="242.85" y2="2327.61" gradientUnits="userSpaceOnUse">
      <stop offset="0" stop-color="#ffbb38"/>
      <stop offset="1" stop-color="#f90"/>
    </linearGradient>
  </defs>
  <g id="Layer_1-2" data-name="Layer 1">
    <g>
      <path class="cls-1" d="M236.91,284.19c-59.17,7.1-108.16,9.16-161.39,6.2-.43-.03-.86-.05-1.3-.07-5.72-.27-11.58-.68-17.44-1.16-15.9-1.13-32.26-2.78-49.46-4.82-2.04-17.29-3.62-33.69-4.82-49.57-.47-5.85-.82-11.57-1.09-17.23-.03-.46-.05-.93-.07-1.39,6.69,.28,37.34,1.54,71.67,2.52,37.35,1.07,79.07,1.82,99,.62,1.16-19.92,.42-61.6-.64-98.92,34.33,.99,64.98,2.25,71.67,2.53,3.02,53.13,.95,102.16-6.14,161.29Z"/>
      <path class="cls-2" d="M291.67,97.73c-8.8-.37-49.15-2.03-94.33-3.33-1.29-45.28-2.94-85.71-3.3-94.39,.57,.04,1.15,.06,1.72,.1,7.53,.36,15.23,.9,22.94,1.53,20.93,1.48,42.46,3.66,65.1,6.34,2.69,22.76,4.77,44.35,6.34,65.24,.63,7.71,1.08,15.24,1.43,22.68,.04,.61,.07,1.23,.1,1.84Z"/>
      <path class="cls-1" d="M72.39,119.75c-1.17,19.92-.43,61.6,.64,98.92,.98,34.41,2.23,65.13,2.51,71.72-.43-.03-.86-.05-1.3-.07-5.72-.27-11.58-.68-17.44-1.16-15.9-1.13-32.26-2.78-49.46-4.82-2.04-17.29-3.62-33.69-4.82-49.57-.47-5.85-.82-11.57-1.09-17.23-.03-.46-.05-.93-.07-1.39C-1.68,163.02,.39,113.98,7.48,54.84c59.17-7.09,108.16-9.15,161.39-6.2,.27,6.6,1.52,37.32,2.51,71.72-37.35-1.07-79.06-1.82-98.99-.62Z"/>
    </g>
  </g>
</svg>